<svg width="41" height="41" viewBox="0 0 41 41" fill="none" xmlns="http://www.w3.org/2000/svg">
<path fill-rule="evenodd" clip-rule="evenodd" d="M30.5321 20.7328C30.5321 20.006 30.4669 19.3071 30.3457 18.6362H20.6921V22.6011H26.2085C25.9708 23.8824 25.2487 24.9679 24.1631 25.6948V28.2666H27.4757C29.4139 26.4822 30.5321 23.8544 30.5321 20.7328Z" fill="#4285F4"/>
<path fill-rule="evenodd" clip-rule="evenodd" d="M20.6917 30.7498C23.4592 30.7498 25.7794 29.8319 27.4753 28.2665L24.1627 25.6947C23.2448 26.3097 22.0707 26.6731 20.6917 26.6731C18.022 26.6731 15.7623 24.87 14.9563 22.4473H11.5319V25.103C13.2185 28.4528 16.6848 30.7498 20.6917 30.7498Z" fill="#34A853"/>
<path fill-rule="evenodd" clip-rule="evenodd" d="M14.9567 22.4477C14.7517 21.8327 14.6353 21.1757 14.6353 20.5002C14.6353 19.8246 14.7517 19.1677 14.9567 18.5527V15.897H11.5323C10.8381 17.2807 10.4421 18.8462 10.4421 20.5002C10.4421 22.1541 10.8381 23.7196 11.5323 25.1034L14.9567 22.4477Z" fill="#FBBC05"/>
<path fill-rule="evenodd" clip-rule="evenodd" d="M20.6917 14.3267C22.1965 14.3267 23.5477 14.8439 24.61 15.8596L27.5498 12.9197C25.7747 11.2657 23.4545 10.25 20.6917 10.25C16.6848 10.25 13.2185 12.5469 11.5319 15.8968L14.9563 18.5525C15.7623 16.1298 18.022 14.3267 20.6917 14.3267Z" fill="#EA4335"/>
</svg>
